<?xml version="1.0" encoding="UTF-8" standalone="no"?><svg xmlns="http://www.w3.org/2000/svg" xmlns:xlink="http://www.w3.org/1999/xlink" contentScriptType="application/ecmascript" contentStyleType="text/css" height="487px" preserveAspectRatio="none" style="width:921px;height:487px;" version="1.1" viewBox="0 0 921 487" width="921px" zoomAndPan="magnify"><defs><filter height="300%" id="fk9zid1tqknj0" width="300%" x="-1" y="-1"><feGaussianBlur result="blurOut" stdDeviation="2.0"/><feColorMatrix in="blurOut" result="blurOut2" type="matrix" values="0 0 0 0 0 0 0 0 0 0 0 0 0 0 0 0 0 0 .4 0"/><feOffset dx="4.0" dy="4.0" in="blurOut2" result="blurOut3"/><feBlend in="SourceGraphic" in2="blurOut3" mode="normal"/></filter></defs><g><text fill="#000000" font-family="sans-serif" font-size="18" lengthAdjust="spacingAndGlyphs" textLength="193" x="367.5" y="16.708">Classes and interfaces</text><!--class Decorator--><rect fill="#FEFECE" filter="url(#fk9zid1tqknj0)" height="86.4141" id="Decorator" style="stroke: #A80036; stroke-width: 1.5;" width="172" x="6" y="255.9531"/><ellipse cx="56.25" cy="271.9531" fill="#B4A7E5" rx="11" ry="11" style="stroke: #A80036; stroke-width: 1.0;"/><path d="M52.1719,267.7188 L52.1719,265.5625 L59.5625,265.5625 L59.5625,267.7188 L57.0938,267.7188 L57.0938,275.7969 L59.5625,275.7969 L59.5625,277.9531 L52.1719,277.9531 L52.1719,275.7969 L54.6406,275.7969 L54.6406,267.7188 L52.1719,267.7188 Z "/><text fill="#000000" font-family="sans-serif" font-size="12" font-style="italic" lengthAdjust="spacingAndGlyphs" textLength="63" x="76.75" y="276.1074">Decorator</text><line style="stroke: #A80036; stroke-width: 1.5;" x1="7" x2="177" y1="287.9531" y2="287.9531"/><line style="stroke: #A80036; stroke-width: 1.5;" x1="7" x2="177" y1="295.9531" y2="295.9531"/><text fill="#000000" font-family="sans-serif" font-size="11" lengthAdjust="spacingAndGlyphs" textLength="114" x="12" y="310.1636">markFieldValid(field)</text><text fill="#000000" font-family="sans-serif" font-size="11" lengthAdjust="spacingAndGlyphs" textLength="160" x="12" y="322.9683">markFieldInvalid(field, error)</text><text fill="#000000" font-family="sans-serif" font-size="11" lengthAdjust="spacingAndGlyphs" textLength="136" x="12" y="335.7729">markFieldNeutrum(field)</text><!--class Harvester--><rect fill="#FEFECE" filter="url(#fk9zid1tqknj0)" height="86.4141" id="Harvester" style="stroke: #A80036; stroke-width: 1.5;" width="131" x="213.5" y="255.9531"/><ellipse cx="246.05" cy="271.9531" fill="#B4A7E5" rx="11" ry="11" style="stroke: #A80036; stroke-width: 1.0;"/><path d="M241.9719,267.7188 L241.9719,265.5625 L249.3625,265.5625 L249.3625,267.7188 L246.8938,267.7188 L246.8938,275.7969 L249.3625,275.7969 L249.3625,277.9531 L241.9719,277.9531 L241.9719,275.7969 L244.4406,275.7969 L244.4406,267.7188 L241.9719,267.7188 Z "/><text fill="#000000" font-family="sans-serif" font-size="12" font-style="italic" lengthAdjust="spacingAndGlyphs" textLength="60" x="263.95" y="276.1074">Harvester</text><line style="stroke: #A80036; stroke-width: 1.5;" x1="214.5" x2="343.5" y1="287.9531" y2="287.9531"/><line style="stroke: #A80036; stroke-width: 1.5;" x1="214.5" x2="343.5" y1="295.9531" y2="295.9531"/><text fill="#000000" font-family="sans-serif" font-size="11" lengthAdjust="spacingAndGlyphs" textLength="81" x="219.5" y="310.1636">getValue(field)</text><text fill="#000000" font-family="sans-serif" font-size="11" lengthAdjust="spacingAndGlyphs" textLength="119" x="219.5" y="322.9683">setValue(field, value)</text><text fill="#000000" font-family="sans-serif" font-size="11" lengthAdjust="spacingAndGlyphs" textLength="64" x="219.5" y="335.7729">getValues()</text><!--class Localizer--><rect fill="#FEFECE" filter="url(#fk9zid1tqknj0)" height="73.6094" id="Localizer" style="stroke: #A80036; stroke-width: 1.5;" width="118" x="766" y="66.9531"/><ellipse cx="794.95" cy="82.9531" fill="#B4A7E5" rx="11" ry="11" style="stroke: #A80036; stroke-width: 1.0;"/><path d="M790.8719,78.7188 L790.8719,76.5625 L798.2625,76.5625 L798.2625,78.7188 L795.7938,78.7188 L795.7938,86.7969 L798.2625,86.7969 L798.2625,88.9531 L790.8719,88.9531 L790.8719,86.7969 L793.3406,86.7969 L793.3406,78.7188 L790.8719,78.7188 Z "/><text fill="#000000" font-family="sans-serif" font-size="12" font-style="italic" lengthAdjust="spacingAndGlyphs" textLength="55" x="812.05" y="87.1074">Localizer</text><line style="stroke: #A80036; stroke-width: 1.5;" x1="767" x2="883" y1="98.9531" y2="98.9531"/><line style="stroke: #A80036; stroke-width: 1.5;" x1="767" x2="883" y1="106.9531" y2="106.9531"/><text fill="#000000" font-family="sans-serif" font-size="11" lengthAdjust="spacingAndGlyphs" textLength="106" x="772" y="121.1636">t(key, parameters)</text><text fill="#000000" font-family="sans-serif" font-size="11" lengthAdjust="spacingAndGlyphs" textLength="101" x="772" y="133.9683">lookup(string key)</text><!--class Binder--><rect fill="#FEFECE" filter="url(#fk9zid1tqknj0)" height="73.6094" id="Binder" style="stroke: #A80036; stroke-width: 1.5;" width="140" x="427" y="402.9531"/><ellipse cx="472.75" cy="418.9531" fill="#B4A7E5" rx="11" ry="11" style="stroke: #A80036; stroke-width: 1.0;"/><path d="M468.6719,414.7188 L468.6719,412.5625 L476.0625,412.5625 L476.0625,414.7188 L473.5938,414.7188 L473.5938,422.7969 L476.0625,422.7969 L476.0625,424.9531 L468.6719,424.9531 L468.6719,422.7969 L471.1406,422.7969 L471.1406,414.7188 L468.6719,414.7188 Z "/><text fill="#000000" font-family="sans-serif" font-size="12" font-style="italic" lengthAdjust="spacingAndGlyphs" textLength="40" x="493.25" y="423.1074">Binder</text><line style="stroke: #A80036; stroke-width: 1.5;" x1="428" x2="566" y1="434.9531" y2="434.9531"/><line style="stroke: #A80036; stroke-width: 1.5;" x1="428" x2="566" y1="442.9531" y2="442.9531"/><text fill="#000000" font-family="sans-serif" font-size="11" lengthAdjust="spacingAndGlyphs" textLength="128" x="433" y="457.1636">constructor(DataEntry)</text><text fill="#000000" font-family="sans-serif" font-size="11" lengthAdjust="spacingAndGlyphs" textLength="53" x="433" y="469.9683">dispose()</text><!--class Validator--><rect fill="#FEFECE" filter="url(#fk9zid1tqknj0)" height="73.6094" id="Validator" style="stroke: #A80036; stroke-width: 1.5;" width="88" x="683" y="261.9531"/><ellipse cx="698" cy="277.9531" fill="#ADD1B2" rx="11" ry="11" style="stroke: #A80036; stroke-width: 1.0;"/><path d="M700.9688,283.5938 Q700.3906,283.8906 699.75,284.0391 Q699.1094,284.1875 698.4063,284.1875 Q695.9063,284.1875 694.5859,282.5391 Q693.2656,280.8906 693.2656,277.7656 Q693.2656,274.6406 694.5859,272.9844 Q695.9063,271.3281 698.4063,271.3281 Q699.1094,271.3281 699.7578,271.4844 Q700.4063,271.6406 700.9688,271.9375 L700.9688,274.6563 Q700.3438,274.0781 699.75,273.8047 Q699.1563,273.5313 698.5313,273.5313 Q697.1875,273.5313 696.5,274.6016 Q695.8125,275.6719 695.8125,277.7656 Q695.8125,279.8594 696.5,280.9297 Q697.1875,282 698.5313,282 Q699.1563,282 699.75,281.7266 Q700.3438,281.4531 700.9688,280.875 L700.9688,283.5938 Z "/><text fill="#000000" font-family="sans-serif" font-size="12" lengthAdjust="spacingAndGlyphs" textLength="56" x="712" y="282.1074">Validator</text><line style="stroke: #A80036; stroke-width: 1.5;" x1="684" x2="770" y1="293.9531" y2="293.9531"/><text fill="#000000" font-family="sans-serif" font-size="11" lengthAdjust="spacingAndGlyphs" textLength="29" x="689" y="308.1636">rules</text><line style="stroke: #A80036; stroke-width: 1.5;" x1="684" x2="770" y1="314.7578" y2="314.7578"/><text fill="#000000" font-family="sans-serif" font-size="11" lengthAdjust="spacingAndGlyphs" textLength="64" x="689" y="328.9683">validate(...)</text><!--class Formatter--><rect fill="#FEFECE" filter="url(#fk9zid1tqknj0)" height="73.6094" id="Formatter" style="stroke: #A80036; stroke-width: 1.5;" width="94" x="816" y="261.9531"/><ellipse cx="831" cy="277.9531" fill="#ADD1B2" rx="11" ry="11" style="stroke: #A80036; stroke-width: 1.0;"/><path d="M833.9688,283.5938 Q833.3906,283.8906 832.75,284.0391 Q832.1094,284.1875 831.4063,284.1875 Q828.9063,284.1875 827.5859,282.5391 Q826.2656,280.8906 826.2656,277.7656 Q826.2656,274.6406 827.5859,272.9844 Q828.9063,271.3281 831.4063,271.3281 Q832.1094,271.3281 832.7578,271.4844 Q833.4063,271.6406 833.9688,271.9375 L833.9688,274.6563 Q833.3438,274.0781 832.75,273.8047 Q832.1563,273.5313 831.5313,273.5313 Q830.1875,273.5313 829.5,274.6016 Q828.8125,275.6719 828.8125,277.7656 Q828.8125,279.8594 829.5,280.9297 Q830.1875,282 831.5313,282 Q832.1563,282 832.75,281.7266 Q833.3438,281.4531 833.9688,280.875 L833.9688,283.5938 Z "/><text fill="#000000" font-family="sans-serif" font-size="12" lengthAdjust="spacingAndGlyphs" textLength="62" x="845" y="282.1074">Formatter</text><line style="stroke: #A80036; stroke-width: 1.5;" x1="817" x2="909" y1="293.9531" y2="293.9531"/><text fill="#000000" font-family="sans-serif" font-size="11" lengthAdjust="spacingAndGlyphs" textLength="29" x="822" y="308.1636">rules</text><line style="stroke: #A80036; stroke-width: 1.5;" x1="817" x2="909" y1="314.7578" y2="314.7578"/><text fill="#000000" font-family="sans-serif" font-size="11" lengthAdjust="spacingAndGlyphs" textLength="58" x="822" y="328.9683">format(...)</text><!--class DataEntry--><rect fill="#FEFECE" filter="url(#fk9zid1tqknj0)" height="150.4375" id="DataEntry" style="stroke: #A80036; stroke-width: 1.5;" width="127" x="433.5" y="28.9531"/><ellipse cx="463.35" cy="44.9531" fill="#ADD1B2" rx="11" ry="11" style="stroke: #A80036; stroke-width: 1.0;"/><path d="M466.3188,50.5938 Q465.7406,50.8906 465.1,51.0391 Q464.4594,51.1875 463.7563,51.1875 Q461.2563,51.1875 459.9359,49.5391 Q458.6156,47.8906 458.6156,44.7656 Q458.6156,41.6406 459.9359,39.9844 Q461.2563,38.3281 463.7563,38.3281 Q464.4594,38.3281 465.1078,38.4844 Q465.7563,38.6406 466.3188,38.9375 L466.3188,41.6563 Q465.6938,41.0781 465.1,40.8047 Q464.5063,40.5313 463.8813,40.5313 Q462.5375,40.5313 461.85,41.6016 Q461.1625,42.6719 461.1625,44.7656 Q461.1625,46.8594 461.85,47.9297 Q462.5375,49 463.8813,49 Q464.5063,49 465.1,48.7266 Q465.6938,48.4531 466.3188,47.875 L466.3188,50.5938 Z "/><text fill="#000000" font-family="sans-serif" font-size="12" lengthAdjust="spacingAndGlyphs" textLength="62" x="480.65" y="49.1074">DataEntry</text><line style="stroke: #A80036; stroke-width: 1.5;" x1="434.5" x2="559.5" y1="60.9531" y2="60.9531"/><text fill="#000000" font-family="sans-serif" font-size="11" lengthAdjust="spacingAndGlyphs" textLength="45" x="439.5" y="75.1636">schema</text><text fill="#000000" font-family="sans-serif" font-size="11" lengthAdjust="spacingAndGlyphs" textLength="101" x="439.5" y="87.9683">Decorator marker</text><text fill="#000000" font-family="sans-serif" font-size="11" lengthAdjust="spacingAndGlyphs" textLength="115" x="439.5" y="100.7729">Harvester harvester</text><text fill="#000000" font-family="sans-serif" font-size="11" lengthAdjust="spacingAndGlyphs" textLength="103" x="439.5" y="113.5776">Validator validator</text><text fill="#000000" font-family="sans-serif" font-size="11" lengthAdjust="spacingAndGlyphs" textLength="114" x="439.5" y="126.3823">Formatter formatter</text><line style="stroke: #A80036; stroke-width: 1.5;" x1="434.5" x2="559.5" y1="132.9766" y2="132.9766"/><text fill="#000000" font-family="sans-serif" font-size="11" lengthAdjust="spacingAndGlyphs" textLength="52" x="439.5" y="147.187">validate()</text><text fill="#000000" font-family="sans-serif" font-size="11" lengthAdjust="spacingAndGlyphs" textLength="78" x="439.5" y="159.9917">validateField()</text><text fill="#000000" font-family="sans-serif" font-size="11" lengthAdjust="spacingAndGlyphs" textLength="103" x="439.5" y="172.7964">configure(options)</text><!--link DataEntry to Validator--><path d="M560.762,158.4581 C598.449,190.0821 645.363,229.4491 679.735,258.2911 " fill="none" id="DataEntry-Validator" style="stroke: #A80036; stroke-width: 1.0;"/><polygon fill="#A80036" points="683.863,261.7551,679.5385,252.9065,680.0323,258.5417,674.3971,259.0355,683.863,261.7551" style="stroke: #A80036; stroke-width: 1.0;"/><text fill="#000000" font-family="sans-serif" font-size="13" lengthAdjust="spacingAndGlyphs" textLength="104" x="641" y="222.02">to validate fields</text><!--link DataEntry to Formatter--><path d="M560.744,124.7581 C614.319,142.7831 691.875,172.1661 754,208.9531 C777.649,222.9571 801.563,241.8401 820.942,258.6101 " fill="none" id="DataEntry-Formatter" style="stroke: #A80036; stroke-width: 1.0;"/><polygon fill="#A80036" points="824.755,261.9341,820.5983,253.0054,820.9857,258.649,815.3421,259.0364,824.755,261.9341" style="stroke: #A80036; stroke-width: 1.0;"/><text fill="#000000" font-family="sans-serif" font-size="13" lengthAdjust="spacingAndGlyphs" textLength="105" x="781" y="222.02">to format values</text><!--link DataEntry to Decorator--><path d="M433.23,110.6021 C358.507,120.0381 234.107,144.8191 149,208.9531 C134.525,219.8611 122.734,235.6021 113.711,250.8231 " fill="none" id="DataEntry-Decorator" style="stroke: #A80036; stroke-width: 1.0;"/><polygon fill="#A80036" points="110.999,255.5241,118.9609,249.7269,113.4974,251.1931,112.0312,245.7295,110.999,255.5241" style="stroke: #A80036; stroke-width: 1.0;"/><text fill="#000000" font-family="sans-serif" font-size="13" lengthAdjust="spacingAndGlyphs" textLength="111" x="150" y="222.02">to decorate fields</text><!--link DataEntry to Harvester--><path d="M433.278,115.8041 C381.033,128.4211 310.309,154.8901 276,208.9531 C268.253,221.1601 266.567,236.3251 267.546,250.6581 " fill="none" id="DataEntry-Harvester" style="stroke: #A80036; stroke-width: 1.0;"/><polygon fill="#A80036" points="268.022,255.8941,271.1929,246.5697,267.5705,250.9146,263.2256,247.2921,268.022,255.8941" style="stroke: #A80036; stroke-width: 1.0;"/><text fill="#000000" font-family="sans-serif" font-size="13" lengthAdjust="spacingAndGlyphs" textLength="193" x="277" y="222.02">to get and set values for fields</text><!--link DataEntry to Localizer--><path d="M560.631,103.9531 C618.318,103.9531 702.928,103.9531 760.794,103.9531 " fill="none" id="DataEntry-Localizer" style="stroke: #A80036; stroke-width: 1.0;"/><polygon fill="#A80036" points="765.958,103.9531,756.958,99.9531,760.958,103.9531,756.958,107.9531,765.958,103.9531" style="stroke: #A80036; stroke-width: 1.0;"/><text fill="#000000" font-family="sans-serif" font-size="13" lengthAdjust="spacingAndGlyphs" textLength="169" x="578.75" y="97.02">to localize error messages</text><!--link DataEntry to Binder--><path d="M497,179.0781 C497,246.2891 497,342.9291 497,397.4373 " fill="none" id="DataEntry-Binder" style="stroke: #A80036; stroke-width: 1.0;"/><polygon fill="#A80036" points="497,402.5784,501,393.5784,497,397.5784,493,393.5784,497,402.5784" style="stroke: #A80036; stroke-width: 1.0;"/><text fill="#000000" font-family="sans-serif" font-size="13" lengthAdjust="spacingAndGlyphs" textLength="145" x="498" y="296.02">to apply extra bindings</text><text fill="#000000" font-family="sans-serif" font-size="13" lengthAdjust="spacingAndGlyphs" textLength="61" x="542" y="311.1528">(optional)</text></g></svg>