<?xml version="1.0" encoding="UTF-8" standalone="no"?><svg xmlns="http://www.w3.org/2000/svg" xmlns:xlink="http://www.w3.org/1999/xlink" contentScriptType="application/ecmascript" contentStyleType="text/css" height="259px" preserveAspectRatio="none" style="width:574px;height:259px;" version="1.1" viewBox="0 0 574 259" width="574px" zoomAndPan="magnify"><defs><filter height="300%" id="fe4xc9dmi2is9" width="300%" x="-1" y="-1"><feGaussianBlur result="blurOut" stdDeviation="2.0"/><feColorMatrix in="blurOut" result="blurOut2" type="matrix" values="0 0 0 0 0 0 0 0 0 0 0 0 0 0 0 0 0 0 .4 0"/><feOffset dx="4.0" dy="4.0" in="blurOut2" result="blurOut3"/><feBlend in="SourceGraphic" in2="blurOut3" mode="normal"/></filter></defs><g><text fill="#000000" font-family="sans-serif" font-size="18" lengthAdjust="spacingAndGlyphs" textLength="140" x="220.5" y="16.708">Context Classes</text><!--class Decorator--><rect fill="#FEFECE" filter="url(#fe4xc9dmi2is9)" height="86.4141" id="Decorator" style="stroke: #A80036; stroke-width: 1.5;" width="172" x="41" y="28.9531"/><ellipse cx="91.25" cy="44.9531" fill="#B4A7E5" rx="11" ry="11" style="stroke: #A80036; stroke-width: 1.0;"/><path d="M87.1719,40.7188 L87.1719,38.5625 L94.5625,38.5625 L94.5625,40.7188 L92.0938,40.7188 L92.0938,48.7969 L94.5625,48.7969 L94.5625,50.9531 L87.1719,50.9531 L87.1719,48.7969 L89.6406,48.7969 L89.6406,40.7188 L87.1719,40.7188 Z "/><text fill="#000000" font-family="sans-serif" font-size="12" font-style="italic" lengthAdjust="spacingAndGlyphs" textLength="63" x="111.75" y="49.1074">Decorator</text><line style="stroke: #A80036; stroke-width: 1.5;" x1="42" x2="212" y1="60.9531" y2="60.9531"/><line style="stroke: #A80036; stroke-width: 1.5;" x1="42" x2="212" y1="68.9531" y2="68.9531"/><text fill="#000000" font-family="sans-serif" font-size="11" lengthAdjust="spacingAndGlyphs" textLength="114" x="47" y="83.1636">markFieldValid(field)</text><text fill="#000000" font-family="sans-serif" font-size="11" lengthAdjust="spacingAndGlyphs" textLength="160" x="47" y="95.9683">markFieldInvalid(field, error)</text><text fill="#000000" font-family="sans-serif" font-size="11" lengthAdjust="spacingAndGlyphs" textLength="136" x="47" y="108.7729">markFieldNeutrum(field)</text><!--class Harvester--><rect fill="#FEFECE" filter="url(#fe4xc9dmi2is9)" height="86.4141" id="Harvester" style="stroke: #A80036; stroke-width: 1.5;" width="131" x="357.5" y="28.9531"/><ellipse cx="390.05" cy="44.9531" fill="#B4A7E5" rx="11" ry="11" style="stroke: #A80036; stroke-width: 1.0;"/><path d="M385.9719,40.7188 L385.9719,38.5625 L393.3625,38.5625 L393.3625,40.7188 L390.8938,40.7188 L390.8938,48.7969 L393.3625,48.7969 L393.3625,50.9531 L385.9719,50.9531 L385.9719,48.7969 L388.4406,48.7969 L388.4406,40.7188 L385.9719,40.7188 Z "/><text fill="#000000" font-family="sans-serif" font-size="12" font-style="italic" lengthAdjust="spacingAndGlyphs" textLength="60" x="407.95" y="49.1074">Harvester</text><line style="stroke: #A80036; stroke-width: 1.5;" x1="358.5" x2="487.5" y1="60.9531" y2="60.9531"/><line style="stroke: #A80036; stroke-width: 1.5;" x1="358.5" x2="487.5" y1="68.9531" y2="68.9531"/><text fill="#000000" font-family="sans-serif" font-size="11" lengthAdjust="spacingAndGlyphs" textLength="81" x="363.5" y="83.1636">getValue(field)</text><text fill="#000000" font-family="sans-serif" font-size="11" lengthAdjust="spacingAndGlyphs" textLength="119" x="363.5" y="95.9683">setValue(field, value)</text><text fill="#000000" font-family="sans-serif" font-size="11" lengthAdjust="spacingAndGlyphs" textLength="64" x="363.5" y="108.7729">getValues()</text><!--class ContextDecorator--><rect fill="#FEFECE" filter="url(#fe4xc9dmi2is9)" height="73.6094" id="ContextDecorator" style="stroke: #A80036; stroke-width: 1.5;" width="242" x="6" y="174.9531"/><ellipse cx="67.25" cy="190.9531" fill="#ADD1B2" rx="11" ry="11" style="stroke: #A80036; stroke-width: 1.0;"/><path d="M70.2188,196.5938 Q69.6406,196.8906 69,197.0391 Q68.3594,197.1875 67.6563,197.1875 Q65.1563,197.1875 63.8359,195.5391 Q62.5156,193.8906 62.5156,190.7656 Q62.5156,187.6406 63.8359,185.9844 Q65.1563,184.3281 67.6563,184.3281 Q68.3594,184.3281 69.0078,184.4844 Q69.6563,184.6406 70.2188,184.9375 L70.2188,187.6563 Q69.5938,187.0781 69,186.8047 Q68.4063,186.5313 67.7813,186.5313 Q66.4375,186.5313 65.75,187.6016 Q65.0625,188.6719 65.0625,190.7656 Q65.0625,192.8594 65.75,193.9297 Q66.4375,195 67.7813,195 Q68.4063,195 69,194.7266 Q69.5938,194.4531 70.2188,193.875 L70.2188,196.5938 Z "/><text fill="#000000" font-family="sans-serif" font-size="12" lengthAdjust="spacingAndGlyphs" textLength="111" x="87.75" y="195.1074">ContextDecorator</text><line style="stroke: #A80036; stroke-width: 1.5;" x1="7" x2="247" y1="206.9531" y2="206.9531"/><text fill="#000000" font-family="sans-serif" font-size="11" lengthAdjust="spacingAndGlyphs" textLength="230" x="12" y="221.1636">Marks fields state on objects in memory</text><text fill="#000000" font-family="sans-serif" font-size="11" lengthAdjust="spacingAndGlyphs" textLength="91" x="12" y="233.9683">validationTarget</text><line style="stroke: #A80036; stroke-width: 1.5;" x1="7" x2="247" y1="240.5625" y2="240.5625"/><!--class ContextHarvester--><rect fill="#FEFECE" filter="url(#fe4xc9dmi2is9)" height="60.8047" id="ContextHarvester" style="stroke: #A80036; stroke-width: 1.5;" width="280" x="283" y="181.4531"/><ellipse cx="364.25" cy="197.4531" fill="#ADD1B2" rx="11" ry="11" style="stroke: #A80036; stroke-width: 1.0;"/><path d="M367.2188,203.0938 Q366.6406,203.3906 366,203.5391 Q365.3594,203.6875 364.6563,203.6875 Q362.1563,203.6875 360.8359,202.0391 Q359.5156,200.3906 359.5156,197.2656 Q359.5156,194.1406 360.8359,192.4844 Q362.1563,190.8281 364.6563,190.8281 Q365.3594,190.8281 366.0078,190.9844 Q366.6563,191.1406 367.2188,191.4375 L367.2188,194.1563 Q366.5938,193.5781 366,193.3047 Q365.4063,193.0313 364.7813,193.0313 Q363.4375,193.0313 362.75,194.1016 Q362.0625,195.1719 362.0625,197.2656 Q362.0625,199.3594 362.75,200.4297 Q363.4375,201.5 364.7813,201.5 Q365.4063,201.5 366,201.2266 Q366.5938,200.9531 367.2188,200.375 L367.2188,203.0938 Z "/><text fill="#000000" font-family="sans-serif" font-size="12" lengthAdjust="spacingAndGlyphs" textLength="109" x="384.75" y="201.6074">ContextHarvester</text><line style="stroke: #A80036; stroke-width: 1.5;" x1="284" x2="562" y1="213.4531" y2="213.4531"/><text fill="#000000" font-family="sans-serif" font-size="11" lengthAdjust="spacingAndGlyphs" textLength="268" x="289" y="227.6636">Reads and writes values on objects in memory</text><line style="stroke: #A80036; stroke-width: 1.5;" x1="284" x2="562" y1="234.2578" y2="234.2578"/><!--link Decorator to ContextDecorator--><path d="M127,115.1071 C127,127.4431 127,141.1351 127,154.2184 " fill="none" id="Decorator-ContextDecorator" style="stroke: #A80036; stroke-width: 1.0;"/><polygon fill="none" points="134,154.6502,127,174.6501,120,154.6501,134,154.6502" style="stroke: #A80036; stroke-width: 1.0;"/><!--link Harvester to ContextHarvester--><path d="M423,115.1071 C423,129.6541 423,146.0861 423,161.183 " fill="none" id="Harvester-ContextHarvester" style="stroke: #A80036; stroke-width: 1.0;"/><polygon fill="none" points="430,161.301,423,181.301,416,161.3009,430,161.301" style="stroke: #A80036; stroke-width: 1.0;"/></g></svg>