<?xml version="1.0" encoding="UTF-8" standalone="no"?><svg xmlns="http://www.w3.org/2000/svg" xmlns:xlink="http://www.w3.org/1999/xlink" contentScriptType="application/ecmascript" contentStyleType="text/css" height="322px" preserveAspectRatio="none" style="width:644px;height:322px;" version="1.1" viewBox="0 0 644 322" width="644px" zoomAndPan="magnify"><defs><filter height="300%" id="fqfksauv5pcpj" width="300%" x="-1" y="-1"><feGaussianBlur result="blurOut" stdDeviation="2.0"/><feColorMatrix in="blurOut" result="blurOut2" type="matrix" values="0 0 0 0 0 0 0 0 0 0 0 0 0 0 0 0 0 0 .4 0"/><feOffset dx="4.0" dy="4.0" in="blurOut2" result="blurOut3"/><feBlend in="SourceGraphic" in2="blurOut3" mode="normal"/></filter></defs><g><text fill="#000000" font-family="sans-serif" font-size="18" lengthAdjust="spacingAndGlyphs" textLength="171" x="235.5" y="26.708">Design preferences</text><text fill="#000000" font-family="sans-serif" font-size="18" lengthAdjust="spacingAndGlyphs" textLength="0" x="324" y="47.6611"/><ellipse cx="337.5" cy="61.9063" fill="#000000" filter="url(#fqfksauv5pcpj)" rx="10" ry="10" style="stroke: none; stroke-width: 1.0;"/><polygon fill="#FEFECE" filter="url(#fqfksauv5pcpj)" points="186.5,91.9063,488.5,91.9063,500.5,103.9063,488.5,115.9063,186.5,115.9063,174.5,103.9063,186.5,91.9063" style="stroke: #A80036; stroke-width: 1.5;"/><text fill="#000000" font-family="sans-serif" font-size="11" lengthAdjust="spacingAndGlyphs" textLength="302" x="186.5" y="107.7144">do you tolerate a library handling DOM manipulation?</text><text fill="#000000" font-family="sans-serif" font-size="11" lengthAdjust="spacingAndGlyphs" textLength="20" x="154.5" y="101.312">yes</text><text fill="#000000" font-family="sans-serif" font-size="11" lengthAdjust="spacingAndGlyphs" textLength="14" x="500.5" y="101.312">no</text><rect fill="#FEFECE" filter="url(#fqfksauv5pcpj)" height="47.9375" rx="12.5" ry="12.5" style="stroke: #A80036; stroke-width: 1.5;" width="209" x="60" y="125.9063"/><text fill="#000000" font-family="sans-serif" font-size="12" lengthAdjust="spacingAndGlyphs" textLength="189" x="70" y="147.0449">you can use provided classes,</text><text fill="#000000" font-family="sans-serif" font-size="12" lengthAdjust="spacingAndGlyphs" textLength="165" x="70" y="161.0137">like in the provided demos</text><rect fill="#FEFECE" filter="url(#fqfksauv5pcpj)" height="33.9688" rx="12.5" ry="12.5" style="stroke: #A80036; stroke-width: 1.5;" width="309" x="10" y="193.8438"/><text fill="#000000" font-family="sans-serif" font-size="12" lengthAdjust="spacingAndGlyphs" textLength="289" x="20" y="214.9824">the same concepts apply to other frameworks</text><rect fill="#FEFECE" filter="url(#fqfksauv5pcpj)" height="47.9375" rx="12.5" ry="12.5" style="stroke: #A80036; stroke-width: 1.5;" width="245" x="388" y="125.9063"/><text fill="#000000" font-family="sans-serif" font-size="12" lengthAdjust="spacingAndGlyphs" textLength="225" x="398" y="147.0449">you can use DataEntry core classes</text><text fill="#000000" font-family="sans-serif" font-size="12" lengthAdjust="spacingAndGlyphs" textLength="143" x="398" y="161.0137">(abstracted from DOM)</text><rect fill="#FEFECE" filter="url(#fqfksauv5pcpj)" height="47.9375" rx="12.5" ry="12.5" style="stroke: #A80036; stroke-width: 1.5;" width="219" x="401" y="193.8438"/><text fill="#000000" font-family="sans-serif" font-size="12" lengthAdjust="spacingAndGlyphs" textLength="199" x="411" y="214.9824">implement your own logic to fire</text><text fill="#000000" font-family="sans-serif" font-size="12" lengthAdjust="spacingAndGlyphs" textLength="175" x="411" y="228.9512">validation when appropriate</text><polygon fill="#FEFECE" filter="url(#fqfksauv5pcpj)" points="337.5,247.7813,349.5,259.7813,337.5,271.7813,325.5,259.7813,337.5,247.7813" style="stroke: #A80036; stroke-width: 1.5;"/><ellipse cx="337.5" cy="301.7813" fill="none" filter="url(#fqfksauv5pcpj)" rx="10" ry="10" style="stroke: #000000; stroke-width: 1.0;"/><ellipse cx="338" cy="302.2813" fill="#000000" filter="url(#fqfksauv5pcpj)" rx="6" ry="6" style="stroke: none; stroke-width: 1.0;"/><line style="stroke: #A80036; stroke-width: 1.5;" x1="164.5" x2="164.5" y1="173.8438" y2="193.8438"/><polygon fill="#A80036" points="160.5,183.8438,164.5,193.8438,168.5,183.8438,164.5,187.8438" style="stroke: #A80036; stroke-width: 1.0;"/><line style="stroke: #A80036; stroke-width: 1.5;" x1="510.5" x2="510.5" y1="173.8438" y2="193.8438"/><polygon fill="#A80036" points="506.5,183.8438,510.5,193.8438,514.5,183.8438,510.5,187.8438" style="stroke: #A80036; stroke-width: 1.0;"/><line style="stroke: #A80036; stroke-width: 1.5;" x1="174.5" x2="164.5" y1="103.9063" y2="103.9063"/><line style="stroke: #A80036; stroke-width: 1.5;" x1="164.5" x2="164.5" y1="103.9063" y2="125.9063"/><polygon fill="#A80036" points="160.5,115.9063,164.5,125.9063,168.5,115.9063,164.5,119.9063" style="stroke: #A80036; stroke-width: 1.0;"/><line style="stroke: #A80036; stroke-width: 1.5;" x1="500.5" x2="510.5" y1="103.9063" y2="103.9063"/><line style="stroke: #A80036; stroke-width: 1.5;" x1="510.5" x2="510.5" y1="103.9063" y2="125.9063"/><polygon fill="#A80036" points="506.5,115.9063,510.5,125.9063,514.5,115.9063,510.5,119.9063" style="stroke: #A80036; stroke-width: 1.0;"/><line style="stroke: #A80036; stroke-width: 1.5;" x1="164.5" x2="164.5" y1="227.8125" y2="259.7813"/><line style="stroke: #A80036; stroke-width: 1.5;" x1="164.5" x2="325.5" y1="259.7813" y2="259.7813"/><polygon fill="#A80036" points="315.5,255.7813,325.5,259.7813,315.5,263.7813,319.5,259.7813" style="stroke: #A80036; stroke-width: 1.0;"/><line style="stroke: #A80036; stroke-width: 1.5;" x1="510.5" x2="510.5" y1="241.7813" y2="259.7813"/><line style="stroke: #A80036; stroke-width: 1.5;" x1="510.5" x2="349.5" y1="259.7813" y2="259.7813"/><polygon fill="#A80036" points="359.5,255.7813,349.5,259.7813,359.5,263.7813,355.5,259.7813" style="stroke: #A80036; stroke-width: 1.0;"/><line style="stroke: #A80036; stroke-width: 1.5;" x1="337.5" x2="337.5" y1="71.9063" y2="91.9063"/><polygon fill="#A80036" points="333.5,81.9063,337.5,91.9063,341.5,81.9063,337.5,85.9063" style="stroke: #A80036; stroke-width: 1.0;"/><line style="stroke: #A80036; stroke-width: 1.5;" x1="337.5" x2="337.5" y1="271.7813" y2="291.7813"/><polygon fill="#A80036" points="333.5,281.7813,337.5,291.7813,341.5,281.7813,337.5,285.7813" style="stroke: #A80036; stroke-width: 1.0;"/></g></svg>