<?xml version="1.0" encoding="UTF-8" standalone="no"?><svg xmlns="http://www.w3.org/2000/svg" xmlns:xlink="http://www.w3.org/1999/xlink" contentScriptType="application/ecmascript" contentStyleType="text/css" height="322px" preserveAspectRatio="none" style="width:594px;height:322px;" version="1.1" viewBox="0 0 594 322" width="594px" zoomAndPan="magnify"><defs><filter height="300%" id="f1pmyr2xfgn398" width="300%" x="-1" y="-1"><feGaussianBlur result="blurOut" stdDeviation="2.0"/><feColorMatrix in="blurOut" result="blurOut2" type="matrix" values="0 0 0 0 0 0 0 0 0 0 0 0 0 0 0 0 0 0 .4 0"/><feOffset dx="4.0" dy="4.0" in="blurOut2" result="blurOut3"/><feBlend in="SourceGraphic" in2="blurOut3" mode="normal"/></filter></defs><g><text fill="#000000" font-family="sans-serif" font-size="18" lengthAdjust="spacingAndGlyphs" textLength="171" x="210.5" y="26.708">Design preferences</text><text fill="#000000" font-family="sans-serif" font-size="18" lengthAdjust="spacingAndGlyphs" textLength="0" x="299" y="47.6611"/><ellipse cx="287.5" cy="61.9063" fill="#000000" filter="url(#f1pmyr2xfgn398)" rx="10" ry="10" style="stroke: none; stroke-width: 1.0;"/><polygon fill="#FEFECE" filter="url(#f1pmyr2xfgn398)" points="136.5,91.9063,438.5,91.9063,450.5,103.9063,438.5,115.9063,136.5,115.9063,124.5,103.9063,136.5,91.9063" style="stroke: #A80036; stroke-width: 1.5;"/><text fill="#000000" font-family="sans-serif" font-size="11" lengthAdjust="spacingAndGlyphs" textLength="302" x="136.5" y="107.7144">do you tolerate a library handling DOM manipulation?</text><text fill="#000000" font-family="sans-serif" font-size="11" lengthAdjust="spacingAndGlyphs" textLength="20" x="104.5" y="101.312">yes</text><text fill="#000000" font-family="sans-serif" font-size="11" lengthAdjust="spacingAndGlyphs" textLength="14" x="450.5" y="101.312">no</text><rect fill="#FEFECE" filter="url(#f1pmyr2xfgn398)" height="47.9375" rx="12.5" ry="12.5" style="stroke: #A80036; stroke-width: 1.5;" width="209" x="10" y="125.9063"/><text fill="#000000" font-family="sans-serif" font-size="12" lengthAdjust="spacingAndGlyphs" textLength="189" x="20" y="147.0449">you can use provided classes,</text><text fill="#000000" font-family="sans-serif" font-size="12" lengthAdjust="spacingAndGlyphs" textLength="100" x="20" y="161.0137">like in the demo</text><rect fill="#FEFECE" filter="url(#f1pmyr2xfgn398)" height="47.9375" rx="12.5" ry="12.5" style="stroke: #A80036; stroke-width: 1.5;" width="121" x="54" y="193.8438"/><text fill="#000000" font-family="sans-serif" font-size="12" lengthAdjust="spacingAndGlyphs" textLength="21" x="64" y="214.9824">call</text><text fill="#000000" font-family="sans-serif" font-size="12" lengthAdjust="spacingAndGlyphs" text-decoration="underline" textLength="59" x="89" y="214.9824">dispose()</text><line style="stroke: #000000; stroke-width: 1.0;" x1="89" x2="148" y1="216.9824" y2="216.9824"/><text fill="#000000" font-family="sans-serif" font-size="12" lengthAdjust="spacingAndGlyphs" textLength="101" x="64" y="228.9512">when necessary</text><rect fill="#FEFECE" filter="url(#f1pmyr2xfgn398)" height="47.9375" rx="12.5" ry="12.5" style="stroke: #A80036; stroke-width: 1.5;" width="245" x="338" y="125.9063"/><text fill="#000000" font-family="sans-serif" font-size="12" lengthAdjust="spacingAndGlyphs" textLength="225" x="348" y="147.0449">you can use DataEntry core classes</text><text fill="#000000" font-family="sans-serif" font-size="12" lengthAdjust="spacingAndGlyphs" textLength="143" x="348" y="161.0137">(abstracted from DOM)</text><rect fill="#FEFECE" filter="url(#f1pmyr2xfgn398)" height="47.9375" rx="12.5" ry="12.5" style="stroke: #A80036; stroke-width: 1.5;" width="219" x="351" y="193.8438"/><text fill="#000000" font-family="sans-serif" font-size="12" lengthAdjust="spacingAndGlyphs" textLength="199" x="361" y="214.9824">implement your own logic to fire</text><text fill="#000000" font-family="sans-serif" font-size="12" lengthAdjust="spacingAndGlyphs" textLength="175" x="361" y="228.9512">validation when appropriate</text><polygon fill="#FEFECE" filter="url(#f1pmyr2xfgn398)" points="287.5,247.7813,299.5,259.7813,287.5,271.7813,275.5,259.7813,287.5,247.7813" style="stroke: #A80036; stroke-width: 1.5;"/><ellipse cx="287.5" cy="301.7813" fill="none" filter="url(#f1pmyr2xfgn398)" rx="10" ry="10" style="stroke: #000000; stroke-width: 1.0;"/><ellipse cx="288" cy="302.2813" fill="#000000" filter="url(#f1pmyr2xfgn398)" rx="6" ry="6" style="stroke: none; stroke-width: 1.0;"/><line style="stroke: #A80036; stroke-width: 1.5;" x1="114.5" x2="114.5" y1="173.8438" y2="193.8438"/><polygon fill="#A80036" points="110.5,183.8438,114.5,193.8438,118.5,183.8438,114.5,187.8438" style="stroke: #A80036; stroke-width: 1.0;"/><line style="stroke: #A80036; stroke-width: 1.5;" x1="460.5" x2="460.5" y1="173.8438" y2="193.8438"/><polygon fill="#A80036" points="456.5,183.8438,460.5,193.8438,464.5,183.8438,460.5,187.8438" style="stroke: #A80036; stroke-width: 1.0;"/><line style="stroke: #A80036; stroke-width: 1.5;" x1="124.5" x2="114.5" y1="103.9063" y2="103.9063"/><line style="stroke: #A80036; stroke-width: 1.5;" x1="114.5" x2="114.5" y1="103.9063" y2="125.9063"/><polygon fill="#A80036" points="110.5,115.9063,114.5,125.9063,118.5,115.9063,114.5,119.9063" style="stroke: #A80036; stroke-width: 1.0;"/><line style="stroke: #A80036; stroke-width: 1.5;" x1="450.5" x2="460.5" y1="103.9063" y2="103.9063"/><line style="stroke: #A80036; stroke-width: 1.5;" x1="460.5" x2="460.5" y1="103.9063" y2="125.9063"/><polygon fill="#A80036" points="456.5,115.9063,460.5,125.9063,464.5,115.9063,460.5,119.9063" style="stroke: #A80036; stroke-width: 1.0;"/><line style="stroke: #A80036; stroke-width: 1.5;" x1="114.5" x2="114.5" y1="241.7813" y2="259.7813"/><line style="stroke: #A80036; stroke-width: 1.5;" x1="114.5" x2="275.5" y1="259.7813" y2="259.7813"/><polygon fill="#A80036" points="265.5,255.7813,275.5,259.7813,265.5,263.7813,269.5,259.7813" style="stroke: #A80036; stroke-width: 1.0;"/><line style="stroke: #A80036; stroke-width: 1.5;" x1="460.5" x2="460.5" y1="241.7813" y2="259.7813"/><line style="stroke: #A80036; stroke-width: 1.5;" x1="460.5" x2="299.5" y1="259.7813" y2="259.7813"/><polygon fill="#A80036" points="309.5,255.7813,299.5,259.7813,309.5,263.7813,305.5,259.7813" style="stroke: #A80036; stroke-width: 1.0;"/><line style="stroke: #A80036; stroke-width: 1.5;" x1="287.5" x2="287.5" y1="71.9063" y2="91.9063"/><polygon fill="#A80036" points="283.5,81.9063,287.5,91.9063,291.5,81.9063,287.5,85.9063" style="stroke: #A80036; stroke-width: 1.0;"/><line style="stroke: #A80036; stroke-width: 1.5;" x1="287.5" x2="287.5" y1="271.7813" y2="291.7813"/><polygon fill="#A80036" points="283.5,281.7813,287.5,291.7813,291.5,281.7813,287.5,285.7813" style="stroke: #A80036; stroke-width: 1.0;"/></g></svg>