<?xml version="1.0" encoding="UTF-8" standalone="no"?><svg xmlns="http://www.w3.org/2000/svg" xmlns:xlink="http://www.w3.org/1999/xlink" contentScriptType="application/ecmascript" contentStyleType="text/css" height="272px" preserveAspectRatio="none" style="width:898px;height:272px;" version="1.1" viewBox="0 0 898 272" width="898px" zoomAndPan="magnify"><defs><filter height="300%" id="fnt19bilnw6z0" width="300%" x="-1" y="-1"><feGaussianBlur result="blurOut" stdDeviation="2.0"/><feColorMatrix in="blurOut" result="blurOut2" type="matrix" values="0 0 0 0 0 0 0 0 0 0 0 0 0 0 0 0 0 0 .4 0"/><feOffset dx="4.0" dy="4.0" in="blurOut2" result="blurOut3"/><feBlend in="SourceGraphic" in2="blurOut3" mode="normal"/></filter></defs><g><text fill="#000000" font-family="sans-serif" font-size="18" lengthAdjust="spacingAndGlyphs" textLength="113" x="396.5" y="16.708">DOM Classes</text><!--class Decorator--><rect fill="#FEFECE" filter="url(#fnt19bilnw6z0)" height="86.4141" id="Decorator" style="stroke: #A80036; stroke-width: 1.5;" width="172" x="38" y="28.9531"/><ellipse cx="88.25" cy="44.9531" fill="#B4A7E5" rx="11" ry="11" style="stroke: #A80036; stroke-width: 1.0;"/><path d="M84.1719,40.7188 L84.1719,38.5625 L91.5625,38.5625 L91.5625,40.7188 L89.0938,40.7188 L89.0938,48.7969 L91.5625,48.7969 L91.5625,50.9531 L84.1719,50.9531 L84.1719,48.7969 L86.6406,48.7969 L86.6406,40.7188 L84.1719,40.7188 Z "/><text fill="#000000" font-family="sans-serif" font-size="12" font-style="italic" lengthAdjust="spacingAndGlyphs" textLength="63" x="108.75" y="49.1074">Decorator</text><line style="stroke: #A80036; stroke-width: 1.5;" x1="39" x2="209" y1="60.9531" y2="60.9531"/><line style="stroke: #A80036; stroke-width: 1.5;" x1="39" x2="209" y1="68.9531" y2="68.9531"/><text fill="#000000" font-family="sans-serif" font-size="11" lengthAdjust="spacingAndGlyphs" textLength="114" x="44" y="83.1636">markFieldValid(field)</text><text fill="#000000" font-family="sans-serif" font-size="11" lengthAdjust="spacingAndGlyphs" textLength="160" x="44" y="95.9683">markFieldInvalid(field, error)</text><text fill="#000000" font-family="sans-serif" font-size="11" lengthAdjust="spacingAndGlyphs" textLength="136" x="44" y="108.7729">markFieldNeutrum(field)</text><!--class Harvester--><rect fill="#FEFECE" filter="url(#fnt19bilnw6z0)" height="86.4141" id="Harvester" style="stroke: #A80036; stroke-width: 1.5;" width="131" x="363.5" y="28.9531"/><ellipse cx="396.05" cy="44.9531" fill="#B4A7E5" rx="11" ry="11" style="stroke: #A80036; stroke-width: 1.0;"/><path d="M391.9719,40.7188 L391.9719,38.5625 L399.3625,38.5625 L399.3625,40.7188 L396.8938,40.7188 L396.8938,48.7969 L399.3625,48.7969 L399.3625,50.9531 L391.9719,50.9531 L391.9719,48.7969 L394.4406,48.7969 L394.4406,40.7188 L391.9719,40.7188 Z "/><text fill="#000000" font-family="sans-serif" font-size="12" font-style="italic" lengthAdjust="spacingAndGlyphs" textLength="60" x="413.95" y="49.1074">Harvester</text><line style="stroke: #A80036; stroke-width: 1.5;" x1="364.5" x2="493.5" y1="60.9531" y2="60.9531"/><line style="stroke: #A80036; stroke-width: 1.5;" x1="364.5" x2="493.5" y1="68.9531" y2="68.9531"/><text fill="#000000" font-family="sans-serif" font-size="11" lengthAdjust="spacingAndGlyphs" textLength="81" x="369.5" y="83.1636">getValue(field)</text><text fill="#000000" font-family="sans-serif" font-size="11" lengthAdjust="spacingAndGlyphs" textLength="119" x="369.5" y="95.9683">setValue(field, value)</text><text fill="#000000" font-family="sans-serif" font-size="11" lengthAdjust="spacingAndGlyphs" textLength="64" x="369.5" y="108.7729">getValues()</text><!--class Binder--><rect fill="#FEFECE" filter="url(#fnt19bilnw6z0)" height="73.6094" id="Binder" style="stroke: #A80036; stroke-width: 1.5;" width="140" x="682" y="34.9531"/><ellipse cx="727.75" cy="50.9531" fill="#B4A7E5" rx="11" ry="11" style="stroke: #A80036; stroke-width: 1.0;"/><path d="M723.6719,46.7188 L723.6719,44.5625 L731.0625,44.5625 L731.0625,46.7188 L728.5938,46.7188 L728.5938,54.7969 L731.0625,54.7969 L731.0625,56.9531 L723.6719,56.9531 L723.6719,54.7969 L726.1406,54.7969 L726.1406,46.7188 L723.6719,46.7188 Z "/><text fill="#000000" font-family="sans-serif" font-size="12" font-style="italic" lengthAdjust="spacingAndGlyphs" textLength="40" x="748.25" y="55.1074">Binder</text><line style="stroke: #A80036; stroke-width: 1.5;" x1="683" x2="821" y1="66.9531" y2="66.9531"/><line style="stroke: #A80036; stroke-width: 1.5;" x1="683" x2="821" y1="74.9531" y2="74.9531"/><text fill="#000000" font-family="sans-serif" font-size="11" lengthAdjust="spacingAndGlyphs" textLength="128" x="688" y="89.1636">constructor(DataEntry)</text><text fill="#000000" font-family="sans-serif" font-size="11" lengthAdjust="spacingAndGlyphs" textLength="53" x="688" y="101.9683">dispose()</text><!--class DomDecorator--><rect fill="#FEFECE" filter="url(#fnt19bilnw6z0)" height="60.8047" id="DomDecorator" style="stroke: #A80036; stroke-width: 1.5;" width="236" x="6" y="187.4531"/><ellipse cx="74.25" cy="203.4531" fill="#ADD1B2" rx="11" ry="11" style="stroke: #A80036; stroke-width: 1.0;"/><path d="M77.2188,209.0938 Q76.6406,209.3906 76,209.5391 Q75.3594,209.6875 74.6563,209.6875 Q72.1563,209.6875 70.8359,208.0391 Q69.5156,206.3906 69.5156,203.2656 Q69.5156,200.1406 70.8359,198.4844 Q72.1563,196.8281 74.6563,196.8281 Q75.3594,196.8281 76.0078,196.9844 Q76.6563,197.1406 77.2188,197.4375 L77.2188,200.1563 Q76.5938,199.5781 76,199.3047 Q75.4063,199.0313 74.7813,199.0313 Q73.4375,199.0313 72.75,200.1016 Q72.0625,201.1719 72.0625,203.2656 Q72.0625,205.3594 72.75,206.4297 Q73.4375,207.5 74.7813,207.5 Q75.4063,207.5 76,207.2266 Q76.5938,206.9531 77.2188,206.375 L77.2188,209.0938 Z "/><text fill="#000000" font-family="sans-serif" font-size="12" lengthAdjust="spacingAndGlyphs" textLength="91" x="94.75" y="207.6074">DomDecorator</text><line style="stroke: #A80036; stroke-width: 1.5;" x1="7" x2="241" y1="219.4531" y2="219.4531"/><text fill="#000000" font-family="sans-serif" font-size="11" lengthAdjust="spacingAndGlyphs" textLength="224" x="12" y="233.6636">Marks fields through DOM manipulation</text><line style="stroke: #A80036; stroke-width: 1.5;" x1="7" x2="241" y1="240.2578" y2="240.2578"/><!--class DomHarvester--><rect fill="#FEFECE" filter="url(#fnt19bilnw6z0)" height="60.8047" id="DomHarvester" style="stroke: #A80036; stroke-width: 1.5;" width="304" x="277" y="187.4531"/><ellipse cx="380.25" cy="203.4531" fill="#ADD1B2" rx="11" ry="11" style="stroke: #A80036; stroke-width: 1.0;"/><path d="M383.2188,209.0938 Q382.6406,209.3906 382,209.5391 Q381.3594,209.6875 380.6563,209.6875 Q378.1563,209.6875 376.8359,208.0391 Q375.5156,206.3906 375.5156,203.2656 Q375.5156,200.1406 376.8359,198.4844 Q378.1563,196.8281 380.6563,196.8281 Q381.3594,196.8281 382.0078,196.9844 Q382.6563,197.1406 383.2188,197.4375 L383.2188,200.1563 Q382.5938,199.5781 382,199.3047 Q381.4063,199.0313 380.7813,199.0313 Q379.4375,199.0313 378.75,200.1016 Q378.0625,201.1719 378.0625,203.2656 Q378.0625,205.3594 378.75,206.4297 Q379.4375,207.5 380.7813,207.5 Q381.4063,207.5 382,207.2266 Q382.5938,206.9531 383.2188,206.375 L383.2188,209.0938 Z "/><text fill="#000000" font-family="sans-serif" font-size="12" lengthAdjust="spacingAndGlyphs" textLength="89" x="400.75" y="207.6074">DomHarvester</text><line style="stroke: #A80036; stroke-width: 1.5;" x1="278" x2="580" y1="219.4531" y2="219.4531"/><text fill="#000000" font-family="sans-serif" font-size="11" lengthAdjust="spacingAndGlyphs" textLength="292" x="283" y="233.6636">Reads and writes values making DOM manipulation</text><line style="stroke: #A80036; stroke-width: 1.5;" x1="278" x2="580" y1="240.2578" y2="240.2578"/><!--class DomBinder--><rect fill="#FEFECE" filter="url(#fnt19bilnw6z0)" height="86.4141" id="DomBinder" style="stroke: #A80036; stroke-width: 1.5;" width="271" x="616.5" y="174.9531"/><ellipse cx="713.75" cy="190.9531" fill="#ADD1B2" rx="11" ry="11" style="stroke: #A80036; stroke-width: 1.0;"/><path d="M716.7188,196.5938 Q716.1406,196.8906 715.5,197.0391 Q714.8594,197.1875 714.1563,197.1875 Q711.6563,197.1875 710.3359,195.5391 Q709.0156,193.8906 709.0156,190.7656 Q709.0156,187.6406 710.3359,185.9844 Q711.6563,184.3281 714.1563,184.3281 Q714.8594,184.3281 715.5078,184.4844 Q716.1563,184.6406 716.7188,184.9375 L716.7188,187.6563 Q716.0938,187.0781 715.5,186.8047 Q714.9063,186.5313 714.2813,186.5313 Q712.9375,186.5313 712.25,187.6016 Q711.5625,188.6719 711.5625,190.7656 Q711.5625,192.8594 712.25,193.9297 Q712.9375,195 714.2813,195 Q714.9063,195 715.5,194.7266 Q716.0938,194.4531 716.7188,193.875 L716.7188,196.5938 Z "/><text fill="#000000" font-family="sans-serif" font-size="12" lengthAdjust="spacingAndGlyphs" textLength="68" x="734.25" y="195.1074">DomBinder</text><line style="stroke: #A80036; stroke-width: 1.5;" x1="617.5" x2="886.5" y1="206.9531" y2="206.9531"/><text fill="#000000" font-family="sans-serif" font-size="11" lengthAdjust="spacingAndGlyphs" textLength="190" x="622.5" y="221.1636">Automatic validation on field blur.</text><text fill="#000000" font-family="sans-serif" font-size="11" lengthAdjust="spacingAndGlyphs" textLength="232" x="622.5" y="233.9683">Formatting on focus and after validation.</text><line style="stroke: #A80036; stroke-width: 1.5;" x1="617.5" x2="886.5" y1="240.5625" y2="240.5625"/><text fill="#000000" font-family="sans-serif" font-size="11" lengthAdjust="spacingAndGlyphs" textLength="259" x="622.5" y="254.7729">Automatic handling of constraints (keypress).</text><!--link Decorator to DomDecorator--><path d="M124,114.9911 C124,131.3341 124,150.1851 124,167.1979 " fill="none" id="Decorator-DomDecorator" style="stroke: #A80036; stroke-width: 1.0;"/><polygon fill="none" points="131,167.4379,124,187.4379,117,167.4378,131,167.4379" style="stroke: #A80036; stroke-width: 1.0;"/><!--link Harvester to DomHarvester--><path d="M429,114.9911 C429,131.3341 429,150.1851 429,167.1979 " fill="none" id="Harvester-DomHarvester" style="stroke: #A80036; stroke-width: 1.0;"/><polygon fill="none" points="436,167.4379,429,187.4379,422,167.4378,436,167.4379" style="stroke: #A80036; stroke-width: 1.0;"/><!--link Binder to DomBinder--><path d="M752,109.2901 C752,123.0581 752,139.1541 752,154.6401 " fill="none" id="Binder-DomBinder" style="stroke: #A80036; stroke-width: 1.0;"/><polygon fill="none" points="759,154.7521,752,174.7516,745,154.7521,759,154.7521" style="stroke: #A80036; stroke-width: 1.0;"/></g></svg>